<?xml version="1.0" standalone="no"?>
<svg viewBox="0 0 167 167" version="1.1" xmlns="http://www.w3.org/2000/svg" xmlns:xlink="http://www.w3.org/1999/xlink" stroke-linecap="round" stroke-linejoin="round" fill-rule="evenodd" xml:space="preserve" >
<g fill="none" stroke="rgb(0,0,0)" stroke-width="0.20875" >
<polygon points="77.0748,38.1457 71.0276,49.4843 63.4685,59.311 49.1063,71.4055 32.4764,79.3425 21.1378,82.3661 7.90945,83.5 21.1378,84.6339 32.4764,87.6575 49.1063,95.5945 63.4685,107.689 71.0276,117.516 77.0748,128.854 81.2323,140.193 83.5,159.091 85.7677,140.193 89.9252,128.854 95.9724,117.516 103.531,107.689 117.894,95.5945 134.524,87.6575 145.862,84.6339 159.091,83.5 145.862,82.3661 134.524,79.3425 117.894,71.4055 103.531,59.311 95.9724,49.4843 89.9252,38.1457 85.7677,26.8071 83.5,7.90945 81.2323,26.8071 " />
</g>
</svg>
